<svg id="Layer_1" data-name="Layer 1" xmlns="http://www.w3.org/2000/svg" viewBox="0 0 500 500"><defs><style>.cls-1{fill:#1c93c1;}.cls-2{fill:#ae017e;}.cls-26,.cls-3{fill:none;}.cls-11,.cls-14,.cls-16,.cls-19,.cls-21,.cls-3,.cls-6{stroke:#fff;stroke-linecap:round;}.cls-11,.cls-14,.cls-16,.cls-19,.cls-21,.cls-26,.cls-3,.cls-6{stroke-miterlimit:10;}.cls-3{stroke-width:3px;}.cls-4{fill:#3fb5c4;}.cls-5{fill:#ad017e;}.cls-6{fill:#feb24c;}.cls-7{fill:#0a86bc;}.cls-8{fill:#9e007d;}.cls-9{fill:#1a8fbf;}.cls-10{fill:#98007c;}.cls-11{fill:#fea746;}.cls-12{fill:#0378b6;}.cls-13{fill:#94007b;}.cls-14{fill:#fec660;}.cls-15{fill:#1e57a5;}.cls-16{fill:#ffea99;}.cls-17{fill:#53bdc1;}.cls-18{fill:#96007c;}.cls-19{fill:#fee48c;}.cls-20{fill:#99007c;}.cls-21{fill:#fed977;}.cls-22{font-size:12px;font-family:HelveticaNeue, Helvetica Neue;}.cls-23{letter-spacing:-0.04em;}.cls-24{letter-spacing:-0.03em;}.cls-25{letter-spacing:0.02em;}.cls-26{stroke:#000;}</style></defs><title>Artboard 1</title><path class="cls-1" d="M73,194.88l45.47,3.41v65.32L73,262.9"/><path class="cls-2" d="M73,300l45.47.27v-36.7L73,262.9"/><path class="cls-3" d="M73,262.9l43.47.71"/><path class="cls-4" d="M117.06,263.61V198.29l45.47-13v74.74Z"/><path class="cls-5" d="M117.06,263.61v36.7l45.47-.8V260.07Z"/><path class="cls-3" d="M117.06,263.61l43.47-3.54"/><path class="cls-6" d="M106,263.61a11.1,11.1,0,1,1,11.1,11.1A11.1,11.1,0,0,1,106,263.61Z"/><path class="cls-7" d="M161.14,260.07V185.33l45.47,3v71.84Z"/><path class="cls-8" d="M161.14,260.07v39.44l45.47,1.62v-41Z"/><path class="cls-3" d="M161.14,260.07l43.47.06"/><path class="cls-9" d="M205.22,260.13V188.29l45.47,2.84v71.55Z"/><path class="cls-10" d="M205.22,260.13v41l45.47,3.33V262.68Z"/><path class="cls-3" d="M205.22,260.13l43.47,2.55"/><path class="cls-11" d="M190.87,260.13a14.35,14.35,0,1,1,14.35,14.35A14.35,14.35,0,0,1,190.87,260.13Z"/><path class="cls-12" d="M249.3,262.68V191.13l45.47,16V265.4Z"/><path class="cls-13" d="M249.3,262.68v41.78l45.47,2V265.4Z"/><path class="cls-3" d="M249.3,262.68l43.47,2.72"/><path class="cls-14" d="M238.2,262.68a11.1,11.1,0,1,1,11.1,11.1A11.1,11.1,0,0,1,238.2,262.68Z"/><path class="cls-15" d="M293.38,265.4V207.16l45.47,6.1v60.57Z"/><path class="cls-13" d="M293.38,265.4v41.07l45.47,5.83V273.83Z"/><path class="cls-3" d="M293.38,265.4l43.47,8.43"/><path class="cls-16" d="M287.83,265.4a5.55,5.55,0,1,1,5.55,5.55A5.54,5.54,0,0,1,287.83,265.4Z"/><path class="cls-17" d="M337.46,273.83V213.26l45.47,8.43v57.6Z"/><path class="cls-18" d="M337.46,273.83V312.3l45.47,2.81V279.29Z"/><path class="cls-3" d="M337.46,273.83l43.47,5.46"/><path class="cls-19" d="M331.91,273.83a5.55,5.55,0,1,1,5.55,5.55A5.54,5.54,0,0,1,331.91,273.83Z"/><path class="cls-4" d="M427,281.88l-45.47-2.59v-57.6L427,225.63"/><path class="cls-20" d="M427,281.88l-45.47-2.59v35.82l45.47-.75"/><path class="cls-3" d="M381.54,279.29,425,281.88"/><path class="cls-21" d="M372.74,279.29a8.8,8.8,0,1,1,8.8,8.8A8.8,8.8,0,0,1,372.74,279.29Z"/><text class="cls-22" transform="translate(26.03 96.27)">Height : Number of nuclear tests</text><text class="cls-22" transform="translate(336.97 96.58)">Color : <tspan class="cls-23" x="39.11" y="0">Y</tspan><tspan x="46.44" y="0">ield of la</tspan><tspan class="cls-24" x="91.55" y="0">r</tspan><tspan x="95.21" y="0">gest test</tspan></text><text class="cls-22" transform="translate(26.49 409.52)">Height : Number of military personnel</text><text class="cls-22" transform="translate(299.38 409.99)">Color : Military spending</text><text class="cls-22" transform="translate(150.46 141.03)">Size : Number of inte<tspan class="cls-25" x="112.45" y="0">r</tspan><tspan x="116.66" y="0">national conflicts</tspan></text><text class="cls-22" transform="translate(128.19 357.72)">Color : Number of deaths during conflict</text><line class="cls-26" x1="249" y1="339" x2="248.5" y2="262.5"/><line class="cls-26" x1="205.5" y1="150.5" x2="205.5" y2="258"/><line class="cls-26" x1="94.5" y1="391.5" x2="94.5" y2="284.5"/><line class="cls-26" x1="360.5" y1="392" x2="360.5" y2="294.5"/><line class="cls-26" x1="404.5" y1="105.5" x2="404.5" y2="246.5"/><line class="cls-26" x1="138.5" y1="113" x2="138.5" y2="214"/></svg>