<svg id="Layer_1" data-name="Layer 1" xmlns="http://www.w3.org/2000/svg" xmlns:xlink="http://www.w3.org/1999/xlink" viewBox="0 0 500 500"><defs><style>.cls-1{fill:#1c93c1;}.cls-2{fill:#ae017e;}.cls-27,.cls-3{fill:none;}.cls-11,.cls-14,.cls-16,.cls-19,.cls-21,.cls-3,.cls-6{stroke:#fff;stroke-linecap:round;}.cls-11,.cls-14,.cls-16,.cls-19,.cls-21,.cls-27,.cls-3,.cls-6{stroke-miterlimit:10;}.cls-3{stroke-width:3px;}.cls-4{fill:#3fb5c4;}.cls-5{fill:#ad017e;}.cls-6{fill:#feb24c;}.cls-7{fill:#0a86bc;}.cls-8{fill:#9e007d;}.cls-9{fill:#1a8fbf;}.cls-10{fill:#98007c;}.cls-11{fill:#fea746;}.cls-12{fill:#0378b6;}.cls-13{fill:#94007b;}.cls-14{fill:#fec660;}.cls-15{fill:#1e57a5;}.cls-16{fill:#ffea99;}.cls-17{fill:#53bdc1;}.cls-18{fill:#96007c;}.cls-19{fill:#fee48c;}.cls-20{fill:#99007c;}.cls-21{fill:#fed977;}.cls-22{fill:url(#linear-gradient);}.cls-23{fill:#fff;}.cls-24{fill:url(#linear-gradient-2);}.cls-25{fill:url(#linear-gradient-3);}.cls-26{font-size:15px;font-family:Helvetica-Bold, Helvetica;font-weight:700;}.cls-27{stroke:#000;stroke-width:0.5px;}.cls-28{font-size:10px;font-family:Helvetica-Light, Helvetica;font-weight:300;}.cls-29{letter-spacing:-0.07em;}</style><linearGradient id="linear-gradient" x1="93.5" y1="324.62" x2="224.5" y2="324.62" gradientUnits="userSpaceOnUse"><stop offset="0" stop-color="#ffc"/><stop offset="0.49" stop-color="#fc4e2a"/><stop offset="1" stop-color="#800026"/></linearGradient><linearGradient id="linear-gradient-2" x1="93.5" y1="375.23" x2="224.5" y2="375.23" gradientUnits="userSpaceOnUse"><stop offset="0" stop-color="#ffffd9"/><stop offset="0.49" stop-color="#41b6c4"/><stop offset="1" stop-color="#081d58"/></linearGradient><linearGradient id="linear-gradient-3" x1="93.5" y1="425.04" x2="224.5" y2="425.04" gradientUnits="userSpaceOnUse"><stop offset="0" stop-color="#fff7f3"/><stop offset="0.49" stop-color="#dd3497"/><stop offset="1" stop-color="#49006a"/></linearGradient></defs><title>quantities-key</title><path class="cls-1" d="M80,112.88l45.47,3.41v65.32L80,180.9"/><path class="cls-2" d="M80,218l45.47.27v-36.7L80,180.9"/><path class="cls-3" d="M80,180.9l43.47.71"/><path class="cls-4" d="M124.06,181.61V116.29l45.47-13v74.74Z"/><path class="cls-5" d="M124.06,181.61v36.7l45.47-.8V178.07Z"/><path class="cls-3" d="M124.06,181.61l43.47-3.54"/><path class="cls-6" d="M113,181.61a11.1,11.1,0,1,1,11.1,11.1A11.1,11.1,0,0,1,113,181.61Z"/><path class="cls-7" d="M168.14,178.07V103.33l45.47,3v71.84Z"/><path class="cls-8" d="M168.14,178.07v39.44l45.47,1.62v-41Z"/><path class="cls-3" d="M168.14,178.07l43.47.06"/><path class="cls-9" d="M212.22,178.13V106.29l45.47,2.84v71.55Z"/><path class="cls-10" d="M212.22,178.13v41l45.47,3.33V180.68Z"/><path class="cls-3" d="M212.22,178.13l43.47,2.55"/><path class="cls-11" d="M197.87,178.13a14.35,14.35,0,1,1,14.35,14.35A14.35,14.35,0,0,1,197.87,178.13Z"/><path class="cls-12" d="M256.3,180.68V109.13l45.47,16V183.4Z"/><path class="cls-13" d="M256.3,180.68v41.78l45.47,2V183.4Z"/><path class="cls-3" d="M256.3,180.68l43.47,2.72"/><path class="cls-14" d="M245.2,180.68a11.1,11.1,0,1,1,11.1,11.1A11.1,11.1,0,0,1,245.2,180.68Z"/><path class="cls-15" d="M300.38,183.4V125.16l45.47,6.1v60.57Z"/><path class="cls-13" d="M300.38,183.4v41.07l45.47,5.83V191.83Z"/><path class="cls-3" d="M300.38,183.4l43.47,8.43"/><path class="cls-16" d="M294.83,183.4a5.55,5.55,0,1,1,5.55,5.55A5.54,5.54,0,0,1,294.83,183.4Z"/><path class="cls-17" d="M344.46,191.83V131.26l45.47,8.43v57.6Z"/><path class="cls-18" d="M344.46,191.83V230.3l45.47,2.81V197.29Z"/><path class="cls-3" d="M344.46,191.83l43.47,5.46"/><path class="cls-19" d="M338.91,191.83a5.55,5.55,0,1,1,5.55,5.55A5.54,5.54,0,0,1,338.91,191.83Z"/><path class="cls-4" d="M434,199.88l-45.47-2.59v-57.6L434,143.63"/><path class="cls-20" d="M434,199.88l-45.47-2.59v35.82l45.47-.75"/><path class="cls-3" d="M388.54,197.29,432,199.88"/><path class="cls-21" d="M379.74,197.29a8.8,8.8,0,1,1,8.8,8.8A8.8,8.8,0,0,1,379.74,197.29Z"/><rect class="cls-22" x="93.5" y="315.06" width="131" height="19.12"/><path class="cls-23" d="M224,315.56v18.12H94V315.56H224m1-1H93v20.12H225V314.56Z"/><rect class="cls-24" x="93.5" y="365.67" width="131" height="19.12"/><path class="cls-23" d="M224,366.17v18.12H94V366.17H224m1-1H93v20.12H225V365.17Z"/><rect class="cls-25" x="93.5" y="415.48" width="131" height="19.12"/><path class="cls-23" d="M224,416V434.1H94V416H224m1-1H93V435.1H225V415Z"/><circle class="cls-23" cx="98.33" cy="280.18" r="2.61"/><path class="cls-23" d="M98.33,278.08a2.11,2.11,0,1,1-2.11,2.1,2.11,2.11,0,0,1,2.11-2.1m0-1a3.11,3.11,0,1,0,3.11,3.1,3.1,3.1,0,0,0-3.11-3.1Z"/><circle class="cls-23" cx="107.26" cy="279.02" r="3.77"/><path class="cls-23" d="M107.26,275.74A3.28,3.28,0,1,1,104,279a3.28,3.28,0,0,1,3.27-3.28m0-1a4.28,4.28,0,1,0,4.28,4.28,4.28,4.28,0,0,0-4.28-4.28Z"/><path class="cls-23" d="M118.92,282.79a5.33,5.33,0,1,1,5.33-5.33A5.33,5.33,0,0,1,118.92,282.79Z"/><path class="cls-23" d="M118.92,272.64a4.83,4.83,0,1,1-4.83,4.82,4.83,4.83,0,0,1,4.83-4.82m0-1a5.83,5.83,0,1,0,5.83,5.82,5.83,5.83,0,0,0-5.83-5.82Z"/><path class="cls-23" d="M133.69,282.79a6.88,6.88,0,1,1,6.88-6.88A6.89,6.89,0,0,1,133.69,282.79Z"/><path class="cls-23" d="M133.69,269.53a6.38,6.38,0,1,1-6.39,6.38,6.38,6.38,0,0,1,6.39-6.38m0-1a7.38,7.38,0,1,0,7.38,7.38,7.38,7.38,0,0,0-7.38-7.38Z"/><path class="cls-23" d="M153.48,282.79a9.3,9.3,0,1,1,9.3-9.29A9.31,9.31,0,0,1,153.48,282.79Z"/><path class="cls-23" d="M153.48,264.7a8.8,8.8,0,1,1-8.8,8.8,8.81,8.81,0,0,1,8.8-8.8m0-1a9.8,9.8,0,1,0,9.8,9.8,9.8,9.8,0,0,0-9.8-9.8Z"/><path class="cls-23" d="M179.55,282.79a13.16,13.16,0,1,1,13.16-13.16A13.17,13.17,0,0,1,179.55,282.79Z"/><path class="cls-23" d="M179.55,257a12.66,12.66,0,1,1-12.66,12.65A12.67,12.67,0,0,1,179.55,257m0-1a13.66,13.66,0,1,0,13.66,13.65A13.66,13.66,0,0,0,179.55,256Z"/><circle class="cls-23" cx="210.93" cy="267.22" r="15.57"/><path class="cls-23" d="M210.93,252.15a15.07,15.07,0,1,1-15.07,15.07,15.09,15.09,0,0,1,15.07-15.07m0-1A16.07,16.07,0,1,0,227,267.22a16.06,16.06,0,0,0-16.07-16.07Z"/><text class="cls-26" transform="translate(78.32 62.42)">Number of <tspan x="0" y="18">nuclear tests</tspan></text><text class="cls-26" transform="translate(245.32 270.42)">Number of <tspan x="0" y="18">international conflicts</tspan></text><text class="cls-26" transform="translate(309 86.42)">Number of <tspan x="0" y="18">military personnel</tspan></text><polyline class="cls-27" points="61.5 147 52.5 147 52.5 75.5 71.5 75.5"/><path class="cls-27" d="M75,180.5c-7.08-.88-4.42-14.15-4.42-21.23s-7.08-12.39-7.08-12.39,7.08-5.3,7.08-12.38S67.92,114.15,75,113.27"/><path class="cls-27" d="M438.77,233c3.22-.44,2-7.08,2-10.61s3.22-6.2,3.22-6.2-3.22-2.65-3.22-6.19,1.21-10.17-2-10.61"/><polyline class="cls-27" points="451.01 215.71 460.01 215.71 460.01 100 441.01 100"/><text class="cls-26" transform="translate(245.54 326.8)">Number of deaths <tspan x="0" y="18">per conflict</tspan></text><text class="cls-28" transform="translate(93.54 344.21)">0</text><text class="cls-28" transform="translate(207.54 345.21)">100</text><text class="cls-28" transform="translate(93.54 294.21)">0</text><text class="cls-28" transform="translate(213.54 293.21)">10</text><text class="cls-28" transform="translate(92.54 395.21)">0</text><text class="cls-28" transform="translate(194.54 395.21)">60,000 </text><text class="cls-28" transform="translate(92.54 444.21)">0</text><text class="cls-28" transform="translate(207.54 445.21)">300</text><text class="cls-26" transform="translate(247.54 430.8)">Military spend <tspan x="0" y="18">(Billion US Dollars)</tspan></text><text class="cls-26" transform="translate(247.54 379.8)">Largest yield of nuclear <tspan x="0" y="18">test (TNT </tspan><tspan class="cls-29" x="69.16" y="18">T</tspan><tspan x="77.22" y="18">ons)</tspan></text></svg>